HIERARCHY
ROOT RootJoint
{
    OFFSET   0.000000   0.000000   0.000000
    CHANNELS 6 Xposition Yposition Zposition Xrotation Yrotation Zrotation
    JOINT pelvis_lowerback
    {
        OFFSET   0.000000   0.093605   0.000000
        CHANNELS 3 Xrotation Yrotation Zrotation
        JOINT lowerback_torso
        {
            OFFSET   0.000000   0.100000   0.000000
            CHANNELS 3 Xrotation Yrotation Zrotation
            JOINT torso_head
            {
                OFFSET   0.000000   0.282350   0.000000
                CHANNELS 3 Xrotation Yrotation Zrotation
                End Site
                {
                    OFFSET   0.000000   0.192650   0.000000
                }
            }
            JOINT rTorso_Clavicle
            {
                OFFSET  -0.001000   0.157500   0.000000
                CHANNELS 3 Xrotation Yrotation Zrotation
                JOINT rShoulder
                {
                    OFFSET  -0.117647   0.000000   0.000000
                    CHANNELS 3 Xrotation Yrotation Zrotation
                    JOINT rElbow
                    {
                        OFFSET  -0.245000   0.000000   0.000000
                        CHANNELS 3 Xrotation Yrotation Zrotation
                        JOINT rWrist
                        {
                            OFFSET  -0.240000   0.000000   0.000000
                            CHANNELS 3 Xrotation Yrotation Zrotation
                            End Site
                            {
                                OFFSET  -0.116353  -0.002500   0.000000
                            }
                        }
                    }
                }
            }
            JOINT lTorso_Clavicle
            {
                OFFSET   0.001000   0.157500   0.000000
                CHANNELS 3 Xrotation Yrotation Zrotation
                JOINT lShoulder
                {
                    OFFSET   0.117647   0.000000   0.000000
                    CHANNELS 3 Xrotation Yrotation Zrotation
                    JOINT lElbow
                    {
                        OFFSET   0.245000   0.000000   0.000000
                        CHANNELS 3 Xrotation Yrotation Zrotation
                        JOINT lWrist
                        {
                            OFFSET   0.240000   0.000000   0.000000
                            CHANNELS 3 Xrotation Yrotation Zrotation
                            End Site
                            {
                                OFFSET   0.116353  -0.002500   0.000000
                            }
                        }
                    }
                }
            }
        }
    }
    JOINT rHip
    {
        OFFSET  -0.100000  -0.051395   0.000000
        CHANNELS 3 Xrotation Yrotation Zrotation
        JOINT rKnee
        {
            OFFSET   0.000000  -0.410000   0.000000
            CHANNELS 3 Xrotation Yrotation Zrotation
            JOINT rAnkle
            {
                OFFSET   0.000000  -0.390000   0.000000
                CHANNELS 3 Xrotation Yrotation Zrotation
                JOINT rToeJoint
                {
                    OFFSET   0.000000  -0.050000   0.130000
                    CHANNELS 3 Xrotation Yrotation Zrotation
                    End Site
                    {
                        OFFSET  -0.010000   0.002000   0.060000
                    }
                }
            }
        }
    }
    JOINT lHip
    {
        OFFSET   0.100000  -0.051395   0.000000
        CHANNELS 3 Xrotation Yrotation Zrotation
        JOINT lKnee
        {
            OFFSET   0.000000  -0.410000   0.000000
            CHANNELS 3 Xrotation Yrotation Zrotation
            JOINT lAnkle
            {
                OFFSET   0.000000  -0.390000   0.000000
                CHANNELS 3 Xrotation Yrotation Zrotation
                JOINT lToeJoint
                {
                    OFFSET   0.000000  -0.050000   0.130000
                    CHANNELS 3 Xrotation Yrotation Zrotation
                    End Site
                    {
                        OFFSET   0.010000   0.002000   0.060000
                    }
                }
            }
        }
    }
}
MOTION
Frames: 15
Frame Time:   0.008333
 -2.376719   0.925631   3.975860   0.000000   0.000000   0.000000   0.000000   0.000000   0.000000   0.000000   0.000000   0.000000   0.000000   0.000000   0.000000   0.000000   0.000000   0.000000   0.000000   0.000000   0.000000   0.000000   0.000000   0.000000   0.000000   0.000000   0.000000   0.000000   0.000000   0.000000   0.000000   0.000000   0.000000   0.000000   0.000000   0.000000   0.000000   0.000000   0.000000   0.000000   0.000000   0.000000   0.000000   0.000000   0.000000   0.000000   0.000000   0.000000   0.000000   0.000000   0.000000   0.000000   0.000000   0.000000   0.000000   0.000000   0.000000   0.000000   0.000000   0.000000   0.000000   0.000000   0.000000
 -2.376694   0.926157   3.976736  -1.011166   0.131382  -0.159586   1.071738  -0.062067   0.154729   0.223091  -0.108309   0.088861  -0.137781   0.161266   0.132802  -0.079795  -0.377611   0.074307   0.089127   0.030123   2.239165   0.017787   0.850335  -0.002248   0.061448  -0.035885  -2.778337   0.076926   0.345350  -0.377433   0.179941   0.013923  -2.164877   0.020489  -0.952315   0.004601   0.108584   0.123191   2.957332   1.073769   0.035087   0.076594   0.336762   0.000252   0.000480  -0.295234  -0.253385  -0.052756  -0.202023  -0.000243   0.000158   1.018312  -0.054750   0.292180   0.821296  -0.000930   0.000535  -1.176564   0.129096   0.141765   0.175166  -0.000416   0.000309
 -2.376650   0.927079   3.977925  -2.041865   0.281476  -0.331784   2.064692  -0.140054   0.325952   0.515951  -0.238735   0.197869  -0.221390   0.317207   0.284372  -0.150649  -0.804992   0.840628   0.174776   0.028926   5.029145   0.040076   1.658184  -0.003589   0.148035   0.148774  -4.844592   0.159486   0.711326  -1.486224   0.355737   0.032124  -4.919125   0.046473  -1.863181   0.007748   0.247055  -0.000662   5.175522   2.132057   0.069243   0.080021   0.757247   0.000858   0.001017  -0.569033  -0.491416  -0.103703  -0.406676  -0.000604   0.000235   2.123480  -0.088405   0.695596   1.765960  -0.002558   0.001361  -2.275494   0.251771   0.278295   0.289321  -0.000691   0.000475
 -2.376586   0.927988   3.979301  -3.007871   0.436076  -0.492313   2.959970  -0.231161   0.492481   0.783263  -0.382174   0.303353  -0.290378   0.462716   0.433359  -0.208344  -1.247596   2.043158   0.261137  -0.001949   8.181195   0.061094   2.402963  -0.003911   0.236065   0.328311  -6.103979   0.247165   1.070523  -3.031079   0.528917   0.056066  -8.051922   0.071246  -2.709731   0.009387   0.384758  -0.152938   6.547537   3.101692   0.096323   0.000042   1.166106   0.001606   0.001389  -0.824235  -0.714044  -0.152967  -0.599145  -0.000996   0.000275   3.238126  -0.104361   1.165663   2.700739  -0.004405   0.002209  -3.299088   0.365554   0.408676   0.394900  -0.000946   0.000595
 -2.376520   0.928587   3.980788  -3.902544   0.588490  -0.637598   3.768820  -0.332515   0.647327   1.014474  -0.534454   0.396220  -0.354963   0.598178   0.576058  -0.248837  -1.695319   3.500405   0.352755  -0.056884  11.579137   0.078486   3.087789  -0.003531   0.315049   0.455661  -6.760391   0.342755   1.417004  -4.831450   0.700434   0.081462 -11.393091   0.091884  -3.494554   0.009996   0.512480  -0.283518   7.270373   3.978590   0.115957  -0.151318   1.544418   0.002339   0.001583  -1.063279  -0.922407  -0.200592  -0.781925  -0.001378   0.000300   4.342911  -0.104504   1.684091   3.600362  -0.006225   0.002982  -4.254200   0.470724   0.532927   0.488345  -0.001149   0.000665
 -2.376498   0.928643   3.982330  -4.731900   0.735228  -0.766285   4.503427  -0.441525   0.782127   1.214608  -0.692701   0.463073  -0.416785   0.724224   0.714095  -0.269624  -2.143078   5.094285   0.453019  -0.131479  15.145882   0.091485   3.717148  -0.002731   0.381793   0.525347  -7.000275   0.448170   1.748735  -6.797653   0.865073   0.104601 -14.722585   0.107035  -4.221990   0.009948   0.627562  -0.383762   7.486868   4.769060   0.128753  -0.358906   1.890641   0.002967   0.001639  -1.287414  -1.117431  -0.246544  -0.955336  -0.001717   0.000316   5.429005  -0.090415   2.239427   4.460530  -0.007909   0.003651  -5.145726   0.567768   0.651122   0.570366  -0.001295   0.000692
 -2.376542   0.927989   3.983880  -5.503099   0.873415  -0.880453   5.174407  -0.556222   0.894007   1.390325  -0.855010   0.504812  -0.475970   0.841566   0.843898  -0.269777  -2.586431   6.740248   0.564116  -0.221211  18.824922   0.100195   4.295748  -0.001718   0.436532   0.542532  -6.969325   0.562932   2.063692  -8.825760   1.023336   0.123976 -17.969410   0.116810  -4.896765   0.009548   0.730723  -0.456242   7.378180   5.480257   0.135723  -0.608469   2.206623   0.003457   0.001594  -1.497494  -1.299856  -0.290703  -1.118656  -0.001991   0.000329   6.490399  -0.063505   2.822672   5.280810  -0.009380   0.004198  -5.977903   0.657288   0.763445   0.642751  -0.001389   0.000689
 -2.376598   0.925855   3.984772  -5.781042   0.988998  -1.032680   5.537899  -0.663534   1.092992   1.337769  -0.992122   0.484077  -0.623873   0.790494   0.904907  -0.164598  -3.022188   7.803420   0.925758  -0.261500  22.240356   0.102615   4.866680  -0.002156   0.373489   0.542574  -5.765568   0.781928   2.420997  -9.992949   1.051880   0.181007 -21.272903   0.119579  -5.564463   0.008372   0.740782  -0.626506   6.248981   5.538141  -0.085173  -0.788539   2.716911   0.004297   0.000609  -1.648629  -1.484140  -0.067274  -0.941266  -0.001389  -0.000218   7.093917  -0.033790   3.401903   5.337901  -0.007701   0.003432  -6.483375   0.941397   0.895554   0.726082  -0.001501   0.000837
 -2.376660   0.922497   3.985332  -5.992105   1.144423  -1.176992   5.916904  -0.777593   1.286982   1.270481  -1.129624   0.466572  -0.783687   0.735299   0.954167  -0.058893  -3.431811   8.582776   1.265073  -0.285330  25.286080   0.099960   5.397932  -0.002527   0.315152   0.528734  -4.657961   0.987947   2.758887 -10.848766   1.080959   0.241770 -24.208244   0.116291  -6.186300   0.007395   0.741408  -0.791999   5.221561   5.544419  -0.306088  -0.939716   3.183621   0.004696   0.000032  -1.786476  -1.658908   0.140890  -0.758378  -0.000936  -0.000597   7.552500  -0.007005   3.940487   5.242492  -0.005870   0.002584  -6.962325   1.206703   1.022168   0.800851  -0.001519   0.000941
 -2.376714   0.918054   3.985668  -6.183348   1.316072  -1.310506   6.310865  -0.881532   1.471544   1.230910  -1.258143   0.454329  -0.931730   0.683306   0.998743   0.041303  -3.812033   9.163296   1.578573  -0.291632  28.024029   0.094479   5.894485  -0.002868   0.259524   0.513331  -3.795458   1.178332   3.073231 -11.490301   1.108130   0.299654 -26.835311   0.109615  -6.766823   0.006563   0.739847  -0.947844   4.449227   5.554194  -0.511378  -1.069470   3.615085   0.004803  -0.000278  -1.914582  -1.822263   0.334866  -0.588043  -0.000613  -0.000811   7.911232   0.019163   4.433118   5.105637  -0.004323   0.001825  -7.412341   1.453083   1.142601   0.865796  -0.001465   0.000989
 -2.376788   0.918203   3.986398  -6.543028   1.281307  -1.162292   6.774139  -0.904395   1.406201   1.273848  -1.323823   0.350544  -1.050710   0.637296   1.035554   0.128337  -4.143008   9.960914   1.863328  -0.271444  30.638466   0.089267   6.355386  -0.002878   0.208287   0.480299  -3.182209   1.364613   3.378558 -12.279471   1.140079   0.370000 -29.291919   0.102741  -7.291702   0.005810   0.731416  -1.018239   3.962760   5.777838  -0.519669  -1.249109   4.055815   0.003964  -0.000417  -2.323287  -1.779883   0.712042  -0.620196  -0.000393  -0.000648   8.229888  -0.056314   4.290432   5.347488  -0.003473   0.001279  -7.505168   1.542455   1.048853   0.695520  -0.001313   0.000798
 -2.377072   0.918490   3.987185  -6.803121   1.222561  -1.118389   7.136148  -0.922891   1.455291   1.285240  -1.372603   0.269598  -1.162045   0.593662   1.060686   0.218613  -4.463050  10.527049   2.132542  -0.245569  33.047886   0.082802   6.789978  -0.002603   0.160550   0.468983  -2.478858   1.558676   3.692098 -12.874405   1.185395   0.451496 -31.581516   0.094501  -7.781933   0.004993   0.721385  -1.080514   3.380726   5.920966  -0.678880  -1.255158   4.430599   0.002985  -0.001070  -2.527983  -1.909361   0.901503  -0.843467   0.000134   0.000170   8.506696  -0.005036   4.263009   5.487344  -0.002801   0.001023  -7.720578   1.772550   1.127251   0.797071  -0.001132   0.000840
 -2.377476   0.918750   3.987958  -7.017046   1.152013  -1.098583   7.466905  -0.937531   1.527311   1.284252  -1.413473   0.209277  -1.272273   0.552458   1.087600   0.304587  -4.763660  10.953597   2.381632  -0.214750  35.230862   0.075651   7.195914  -0.002256   0.114497   0.462415  -1.882748   1.746009   3.993402 -13.339675   1.233312   0.534782 -33.662036   0.085576  -8.237276   0.004252   0.709867  -1.129155   2.887068   6.025857  -0.855085  -1.224310   4.773659   0.002157  -0.001609  -2.679866  -2.052841   1.055635  -1.078859   0.000534   0.000955   8.768914   0.047998   4.263450   5.567594  -0.002260   0.000808  -7.956037   1.988026   1.208412   0.886176  -0.000982   0.000826
 -2.378069   0.918809   3.988796  -7.075441   1.073750  -1.023004   7.645697  -0.950294   1.457161   1.188632  -1.409987   0.220378  -1.292117   0.482198   1.105115   0.344835  -5.167070  11.102524   2.669384  -0.180186  36.898274   0.066773   7.582933  -0.001536   0.033141   0.498319  -0.741765   1.976632   4.306436 -13.411698   1.233594   0.615999 -35.404735   0.077345  -8.811704   0.003062   0.673256  -1.129871   1.933286   6.067798  -0.986590  -1.260018   4.891353   0.001657  -0.001495  -2.893616  -2.062577   1.135412  -1.004990   0.000342   0.000627   8.865462   0.055714   4.207326   5.650999  -0.001833   0.000607  -8.116752   2.161585   1.307992   0.900251  -0.000801   0.000675
 -2.378840   0.918813   3.989656  -7.095933   0.980673  -0.955138   7.794027  -0.957281   1.382057   1.075817  -1.403090   0.229982  -1.316771   0.417234   1.120626   0.377527  -5.549655  11.014690   2.933078  -0.149470  38.283351   0.057570   7.944417  -0.000844  -0.047342   0.542164   0.147573   2.184467   4.604906 -13.249669   1.228029   0.694908 -36.864424   0.067840  -9.354271   0.002010   0.638171  -1.176797   1.215813   6.111690  -1.097676  -1.280210   4.969308   0.001274  -0.001327  -3.113720  -2.060988   1.220111  -0.901557   0.000141   0.000326   8.935672   0.058960   4.166091   5.715705  -0.001492   0.000443  -8.274101   2.321590   1.403322   0.918528  -0.000661   0.000553
